<svg width="125.000008" height="124.999992" viewBox="0 0 125 125" fill="none" xmlns="http://www.w3.org/2000/svg" xmlns:xlink="http://www.w3.org/1999/xlink">
	<desc>
			Created with Pixso.
	</desc>
	<defs/>
	<path id="矢量 2" d="M68.75 31.25L56.25 31.25L56.25 56.25L31.25 56.25L31.25 68.75L56.25 68.75L56.25 93.75L68.75 93.75L68.75 68.75L93.75 68.75L93.75 56.25L68.75 56.25L68.75 31.25ZM62.5 0C28 0 0 28 0 62.5C0 97 28 125 62.5 125C97 125 125 97 125 62.5C125 28 97 0 62.5 0ZM62.5 112.5C34.93 112.5 12.5 90.06 12.5 62.5C12.5 34.93 34.93 12.5 62.5 12.5C90.06 12.5 112.5 34.93 112.5 62.5C112.5 90.06 90.06 112.5 62.5 112.5Z" fill="#444444" fill-opacity="1.000000" fill-rule="evenodd"/>
</svg>
